<?xml version="1.0" encoding="utf-8"?>
<!DOCTYPE svg PUBLIC "-//W3C//DTD SVG 1.1//EN" "http://www.w3.org/Graphics/SVG/1.1/DTD/svg11.dtd">
<svg version="1.1" xmlns="http://www.w3.org/2000/svg" xmlns:xlink="http://www.w3.org/1999/xlink" x="0px" y="0px" width="654px" height="142px" viewBox="0 0 6540 1420" preserveAspectRatio="xMidYMid meet">
<g id="layer101">
 <path fill="#101112" d="M1901 1278 c-78 -30 -162 -115 -191 -193 -30 -81 -25 -197 11 -269 27 -55 89 -118 163 -168 69 -46 91 -79 90 -135 -1 -39 -6 -51 -32 -74 -17 -15 -48 -31 -69 -34 -58 -10 -63 -13 -63 -35 0 -29 37 -41 90 -29 88 20 140 86 140 179 0 86 -29 126 -145 201 -86 55 -145 153 -145 239 0 48 29 126 65 173 32 42 121 97 157 97 10 0 13 -27 14 -117 1 -139 25 -246 81 -356 43 -87 145 -191 219 -226 l51 -23 6 -58 c10 -110 73 -202 170 -248 60 -28 87 -29 87 -2 0 14 6 20 18 18 14 -2 16 3 14 32 -3 32 5 64 44 190 19 62 18 70 -17 108 -33 36 -36 36 -75 22 -15 -6 -28 -9 -30 -7 -2 1 3 25 11 52 20 65 19 130 -4 250 -11 55 -23 139 -27 186 -7 98 3 128 59 164 24 15 32 28 32 50 0 29 -1 30 -56 33 l-57 3 -41 -62 c-22 -34 -41 -68 -41 -76 0 -11 -7 -8 -28 9 l-28 23 30 13 c37 16 46 28 46 65 l0 27 -247 -1 c-227 0 -253 -2 -302 -21z m519 -18 c0 -19 -41 -30 -115 -30 -57 0 -76 -3 -73 -12 3 -7 20 -16 39 -19 58 -11 85 -26 122 -70 98 -114 34 -292 -114 -317 -29 -5 -44 -13 -44 -22 0 -37 130 5 176 57 54 62 62 95 55 211 l-6 103 35 55 c31 49 38 54 70 54 19 0 35 -4 35 -8 0 -13 -23 -32 -40 -32 -8 0 -26 -20 -39 -45 -22 -42 -23 -53 -18 -143 3 -53 16 -144 27 -202 13 -66 19 -122 16 -150 -9 -69 -37 -150 -52 -150 -18 0 -18 -19 -1 -26 7 -2 38 4 69 15 53 18 57 18 71 3 26 -31 28 -41 12 -71 -8 -17 -15 -41 -15 -54 0 -39 -28 -95 -56 -113 -20 -14 -24 -22 -19 -45 7 -33 -2 -36 -43 -15 -75 39 -132 136 -135 228 l-1 61 -45 20 c-141 62 -246 197 -291 370 -18 72 -25 164 -22 290 l2 67 200 0 c122 0 200 -4 200 -10z"/>
 <path fill="#101112" d="M3514 999 c-104 -31 -137 -191 -57 -280 40 -44 89 -63 145 -56 53 7 86 31 105 75 8 20 19 45 24 54 18 35 10 38 -101 38 -60 0 -110 2 -110 5 0 20 32 75 51 89 33 23 58 20 103 -10 51 -35 69 -18 26 25 -57 56 -126 79 -186 60z m106 -224 c0 -22 -22 -65 -34 -66 -38 -4 -65 20 -66 59 0 20 5 22 50 22 37 0 50 -4 50 -15z"/>
 <path fill="#101112" d="M3880 1003 c-8 -3 -25 -15 -37 -26 -21 -19 -23 -29 -23 -139 l0 -118 -25 0 c-35 0 -31 -10 20 -53 25 -21 52 -51 60 -67 25 -48 45 -39 45 20 l0 50 50 0 c50 0 55 4 44 34 -4 11 -19 16 -50 16 l-45 0 3 108 c3 107 3 107 29 110 14 2 31 -4 39 -12 17 -21 30 -20 30 2 0 45 -90 93 -140 75z"/>
 <path fill="#101112" d="M4154 996 c-63 -28 -98 -107 -74 -167 13 -32 76 -89 97 -89 18 0 17 -4 -12 -46 -29 -43 -32 -80 -9 -113 42 -59 165 -68 217 -16 27 27 22 82 -12 115 l-28 29 47 50 c51 55 53 55 84 -6 22 -43 20 -63 -4 -63 -13 0 -20 -7 -20 -20 0 -18 7 -20 80 -20 73 0 80 2 80 20 0 15 -7 20 -25 20 -26 0 -37 12 -91 104 l-34 59 25 43 c28 47 54 61 85 44 16 -9 22 -8 26 5 9 23 -13 43 -59 56 -55 15 -101 4 -130 -31 l-25 -29 -33 25 c-58 43 -129 54 -185 30z m159 -67 c12 -7 25 -17 29 -22 9 -15 -31 -69 -44 -61 -7 4 -8 2 -4 -4 6 -10 -54 -82 -68 -82 -17 0 -46 48 -46 78 0 81 66 126 133 91z m-3 -279 c17 -42 1 -80 -34 -80 -27 0 -52 32 -40 53 11 20 47 57 55 57 3 0 12 -14 19 -30z"/>
 <path fill="#101112" d="M2890 980 c0 -14 7 -20 23 -20 44 0 47 -13 47 -206 0 -100 -3 -189 -6 -198 -4 -10 -18 -16 -35 -16 -22 0 -29 -5 -29 -19 0 -23 50 -31 204 -31 137 0 180 11 228 60 35 35 38 42 38 93 0 49 -4 61 -31 92 -39 44 -118 69 -195 63 l-54 -5 0 72 c0 81 9 95 58 95 26 0 33 4 30 18 -3 15 -19 17 -141 20 -132 2 -137 2 -137 -18z m308 -243 c19 -15 42 -69 42 -98 0 -34 -29 -85 -56 -98 -14 -6 -43 -11 -64 -11 l-40 0 0 108 c0 60 3 112 8 116 10 11 92 -1 110 -17z"/>
 <path fill="#101112" d="M4640 980 c0 -13 7 -20 18 -20 38 0 42 -18 42 -210 0 -192 -4 -210 -42 -210 -11 0 -18 -7 -18 -20 0 -19 7 -20 125 -20 118 0 125 1 125 20 0 14 -7 20 -23 20 -44 0 -47 13 -47 206 0 156 2 185 16 199 10 9 25 14 35 12 15 -4 19 0 19 19 l0 24 -125 0 c-118 0 -125 -1 -125 -20z"/>
 </g>
<g id="layer102">
 <path fill="#585b5c" d="M2438 1271 c5 -33 -26 -61 -66 -61 -13 0 -20 -4 -17 -10 7 -11 75 14 87 33 10 16 10 67 0 67 -5 0 -7 -13 -4 -29z"/>
 <path fill="#585b5c" d="M2618 1274 c3 -15 -3 -33 -14 -47 l-19 -22 23 19 c22 19 30 60 13 70 -4 3 -6 -6 -3 -20z"/>
 <path fill="#585b5c" d="M1945 1266 c-95 -30 -163 -88 -203 -173 -21 -47 -26 -72 -26 -133 1 -120 49 -200 166 -277 89 -59 118 -99 118 -162 0 -80 -56 -141 -130 -141 -16 0 -30 -4 -30 -10 0 -14 45 -12 83 4 73 30 113 122 87 200 -12 36 -42 65 -149 144 -114 84 -155 203 -117 337 23 78 106 163 184 189 29 10 62 16 73 13 10 -3 19 -1 19 4 0 6 80 9 204 7 112 -2 202 0 199 5 -8 13 -434 7 -478 -7z"/>
 <path fill="#585b5c" d="M2519 1263 c-13 -16 -12 -17 3 -4 10 7 32 12 52 9 19 -2 32 0 30 4 -10 15 -71 8 -85 -9z"/>
 <path fill="#585b5c" d="M1776 1190 c-25 -27 -46 -52 -46 -57 0 -4 4 -3 8 3 5 5 28 30 52 57 56 62 46 61 -14 -3z"/>
 <path fill="#585b5c" d="M1970 1233 c8 -3 18 -11 22 -17 5 -7 8 -4 8 7 0 11 -7 17 -22 16 -16 0 -18 -2 -8 -6z"/>
 <path fill="#585b5c" d="M2233 1220 c2 -8 14 -16 28 -17 19 -1 20 -1 4 4 -11 3 -24 10 -28 17 -6 7 -7 6 -4 -4z"/>
 <path fill="#585b5c" d="M2013 1180 c0 -25 2 -35 4 -22 2 12 2 32 0 45 -2 12 -4 2 -4 -23z"/>
 <path fill="#585b5c" d="M2442 1198 c-7 -7 -12 -21 -12 -32 0 -18 -2 -18 -27 5 l-27 24 25 -32 c30 -40 39 -41 39 -5 0 15 5 33 12 40 7 7 10 12 7 12 -3 0 -10 -5 -17 -12z"/>
 <path fill="#585b5c" d="M2466 1184 c-10 -14 -15 -35 -13 -47 4 -22 4 -22 6 1 0 12 8 34 17 47 9 14 14 25 11 25 -2 0 -12 -12 -21 -26z"/>
 <path fill="#585b5c" d="M2380 1145 c19 -22 39 -44 44 -50 5 -5 4 -1 -2 10 -6 11 -25 33 -44 50 l-33 30 35 -40z"/>
 <path fill="#585b5c" d="M1810 1140 c-12 -16 -19 -30 -16 -30 2 0 14 14 26 30 12 17 19 30 16 30 -2 0 -14 -13 -26 -30z"/>
 <path fill="#585b5c" d="M1983 1115 c0 -33 2 -45 4 -27 2 18 2 45 0 60 -2 15 -4 0 -4 -33z"/>
 <path fill="#585b5c" d="M2504 1157 c-3 -8 -4 -49 -2 -93 l3 -79 5 93 c5 92 4 104 -6 79z"/>
 <path fill="#585b5c" d="M2013 1055 c0 -27 2 -38 4 -22 2 15 2 37 0 50 -2 12 -4 0 -4 -28z"/>
 <path fill="#585b5c" d="M2462 1060 c0 -19 2 -27 5 -17 2 9 2 25 0 35 -3 9 -5 1 -5 -18z"/>
 <path fill="#585b5c" d="M2443 1005 c0 -27 2 -38 4 -22 2 15 2 37 0 50 -2 12 -4 0 -4 -28z"/>
 <path fill="#585b5c" d="M2533 1005 c0 -22 2 -30 4 -17 2 12 2 30 0 40 -3 9 -5 -1 -4 -23z"/>
 <path fill="#585b5c" d="M1992 1000 c0 -19 2 -27 5 -17 2 9 2 25 0 35 -3 9 -5 1 -5 -18z"/>
 <path fill="#585b5c" d="M4198 1003 c12 -2 30 -2 40 0 9 3 -1 5 -23 4 -22 0 -30 -2 -17 -4z"/>
 <path fill="#585b5c" d="M4463 1003 c9 -2 25 -2 35 0 9 3 1 5 -18 5 -19 0 -27 -2 -17 -5z"/>
 <path fill="#585b5c" d="M2890 980 c0 -14 7 -20 23 -20 13 0 28 -5 35 -12 9 -9 12 -9 12 0 0 7 -13 15 -30 19 -66 13 -23 23 100 23 74 0 130 -4 130 -9 0 -5 -10 -12 -22 -14 -19 -4 -18 -5 5 -6 22 -1 28 3 25 17 -3 15 -19 17 -141 20 -132 2 -137 2 -137 -18z"/>
 <path fill="#585b5c" d="M3459 961 c-22 -21 -39 -47 -38 -57 0 -15 2 -14 10 6 14 35 39 61 74 76 21 9 24 13 11 14 -10 0 -36 -17 -57 -39z"/>
 <path fill="#585b5c" d="M3619 984 c19 -8 41 -19 48 -26 7 -6 13 -8 13 -4 0 10 -63 46 -80 46 -8 -1 0 -7 19 -16z"/>
 <path fill="#585b5c" d="M3955 988 c11 -6 29 -18 40 -27 12 -9 8 -4 -7 12 -16 15 -34 27 -41 27 -6 0 -3 -6 8 -12z"/>
 <path fill="#585b5c" d="M4114 966 c-19 -19 -34 -40 -34 -47 0 -8 9 0 20 18 10 17 32 39 47 47 15 8 22 15 15 16 -8 0 -29 -15 -48 -34z"/>
 <path fill="#585b5c" d="M4289 984 c19 -8 41 -19 48 -26 7 -6 13 -8 13 -4 0 10 -63 46 -80 46 -8 -1 0 -7 19 -16z"/>
 <path fill="#585b5c" d="M4399 973 l-24 -28 30 25 c17 14 32 26 34 28 2 1 0 2 -6 2 -5 0 -20 -12 -34 -27z"/>
 <path fill="#585b5c" d="M4553 984 c35 -19 38 -49 3 -33 -17 8 -29 8 -42 0 -17 -11 -17 -11 3 -6 12 3 31 1 43 -5 16 -9 22 -8 27 6 7 18 -28 54 -51 54 -6 -1 1 -8 17 -16z"/>
 <path fill="#585b5c" d="M4703 993 c37 -2 96 -2 130 0 34 2 4 3 -68 3 -71 0 -99 -1 -62 -3z"/>
 <path fill="#585b5c" d="M3082 948 c-8 -8 -11 -40 -10 -87 l2 -76 3 75 c2 41 9 80 15 87 13 16 6 17 -10 1z"/>
 <path fill="#585b5c" d="M4688 950 c9 -10 12 -65 12 -201 0 -195 -1 -201 -45 -212 -19 -4 -18 -5 2 -6 48 -2 53 16 53 218 0 168 -2 190 -17 202 -15 11 -16 11 -5 -1z"/>
 <path fill="#585b5c" d="M4820 941 c-6 -12 -9 -90 -8 -198 l2 -178 6 188 c4 152 8 190 20 197 9 6 10 10 3 10 -7 0 -17 -9 -23 -19z"/>
 <path fill="#585b5c" d="M3568 928 c-13 -13 -16 -17 -7 -10 9 7 30 17 45 22 24 7 25 8 7 9 -12 1 -32 -9 -45 -21z"/>
 <path fill="#585b5c" d="M3926 942 c-3 -5 7 -7 23 -4 17 2 32 -2 40 -12 8 -9 18 -16 24 -16 5 0 -2 9 -16 20 -26 20 -62 26 -71 12z"/>
 <path fill="#585b5c" d="M4219 933 c-11 -15 -11 -16 1 -5 17 15 64 16 93 1 21 -10 21 -10 3 5 -27 21 -80 20 -97 -1z"/>
 <path fill="#585b5c" d="M2964 750 c0 -102 2 -143 3 -92 2 50 2 134 0 185 -1 50 -3 9 -3 -93z"/>
 <path fill="#585b5c" d="M2404 893 c-9 -15 -27 -36 -38 -46 -21 -18 -21 -18 4 -3 14 8 33 29 43 46 23 37 16 40 -9 3z"/>
 <path fill="#585b5c" d="M3912 818 l-2 -108 53 2 52 2 -47 3 -47 4 -4 102 -3 102 -2 -107z"/>
 <path fill="#585b5c" d="M4180 891 c-5 -11 -9 -35 -9 -53 1 -32 2 -32 8 7 4 22 10 46 14 53 5 6 6 12 3 12 -3 0 -10 -9 -16 -19z"/>
 <path fill="#585b5c" d="M4072 870 c0 -19 2 -27 5 -17 2 9 2 25 0 35 -3 9 -5 1 -5 -18z"/>
 <path fill="#585b5c" d="M3413 840 c0 -25 2 -35 4 -22 2 12 2 32 0 45 -2 12 -4 2 -4 -23z"/>
 <path fill="#585b5c" d="M1705 848 c4 -13 11 -27 16 -33 5 -5 4 5 -2 23 -12 36 -24 44 -14 10z"/>
 <path fill="#585b5c" d="M2401 846 c-13 -14 -36 -30 -52 -37 -16 -6 -28 -14 -25 -16 7 -8 60 24 85 51 14 14 22 26 19 26 -2 0 -15 -11 -27 -24z"/>
 <path fill="#585b5c" d="M4315 850 c-4 -6 -11 -7 -17 -4 -6 4 -8 2 -5 -3 4 -6 -2 -21 -13 -33 -11 -13 -20 -25 -20 -27 0 -10 11 1 40 37 17 22 29 40 26 40 -2 0 -8 -5 -11 -10z"/>
 <path fill="#585b5c" d="M2031 835 c0 -5 6 -21 14 -35 8 -14 14 -20 14 -15 0 6 -6 21 -14 35 -8 14 -14 21 -14 15z"/>
 <path fill="#585b5c" d="M4381 768 l-43 -53 44 47 c36 40 47 46 58 35 12 -10 12 -9 1 6 -7 9 -14 17 -16 17 -1 0 -21 -24 -44 -52z"/>
 <path fill="#585b5c" d="M1825 770 c21 -22 41 -40 44 -40 3 0 -13 18 -34 40 -21 22 -41 40 -44 40 -3 0 13 -18 34 -40z"/>
 <path fill="#585b5c" d="M2070 806 c0 -11 30 -66 36 -66 2 0 -3 15 -12 33 -19 36 -24 44 -24 33z"/>
 <path fill="#585b5c" d="M2235 800 c-8 -13 3 -30 18 -29 9 0 9 2 0 6 -22 8 -14 21 15 26 l27 4 -27 2 c-15 0 -30 -3 -33 -9z"/>
 <path fill="#585b5c" d="M4129 773 c19 -18 39 -33 45 -33 6 0 -1 7 -14 17 -14 9 -34 23 -46 32 -11 9 -5 1 15 -16z"/>
 <path fill="#585b5c" d="M3128 793 c18 -2 45 -2 60 0 15 2 0 4 -33 4 -33 0 -45 -2 -27 -4z"/>
 <path fill="#585b5c" d="M3511 773 c2 -24 2 -25 6 -5 4 19 11 22 53 22 38 0 50 -4 53 -17 4 -14 5 -12 6 5 1 20 -3 22 -59 22 -59 0 -60 0 -59 -27z"/>
 <path fill="#585b5c" d="M2573 720 c0 -41 2 -58 4 -37 2 20 2 54 0 75 -2 20 -4 3 -4 -38z"/>
 <path fill="#585b5c" d="M3421 778 c-1 -9 9 -27 22 -40 12 -13 17 -17 10 -8 -7 8 -16 27 -22 40 -6 17 -10 19 -10 8z"/>
 <path fill="#585b5c" d="M3285 762 c40 -25 56 -46 65 -85 l8 -32 1 29 c1 20 -10 39 -38 67 -21 22 -45 39 -52 39 -8 0 0 -8 16 -18z"/>
 <path fill="#585b5c" d="M3072 643 c1 -122 6 -108 10 35 2 45 0 82 -4 82 -5 0 -7 -53 -6 -117z"/>
 <path fill="#585b5c" d="M3207 730 c7 -8 16 -27 22 -40 6 -17 10 -19 10 -8 1 9 -9 27 -21 40 -13 13 -18 17 -11 8z"/>
 <path fill="#585b5c" d="M3610 742 c0 -6 -7 -18 -16 -26 -8 -9 -11 -16 -5 -16 13 0 35 39 27 48 -3 3 -6 0 -6 -6z"/>
 <path fill="#585b5c" d="M2090 713 c6 -13 34 -47 63 -76 41 -43 44 -44 12 -8 -22 25 -51 60 -63 76 -15 19 -19 22 -12 8z"/>
 <path fill="#585b5c" d="M3770 711 c0 -4 11 -6 25 -3 14 2 25 6 25 8 0 2 -11 4 -25 4 -14 0 -25 -4 -25 -9z"/>
 <path fill="#585b5c" d="M4320 712 c0 -5 14 -18 30 -30 17 -13 30 -21 30 -19 0 2 -13 16 -30 30 -16 15 -30 23 -30 19z"/>
 <path fill="#585b5c" d="M4480 705 c0 -8 -9 -15 -20 -15 -13 0 -20 -7 -20 -20 0 -18 7 -20 80 -20 73 0 80 2 80 20 0 14 -7 20 -22 20 -12 0 -31 8 -42 18 -21 17 -21 17 -2 -5 11 -13 27 -23 38 -23 10 0 18 -4 18 -10 0 -6 -30 -10 -70 -10 -67 0 -93 12 -50 23 17 4 30 37 15 37 -3 0 -5 -7 -5 -15z"/>
 <path fill="#585b5c" d="M1910 707 c0 -2 15 -14 33 -27 20 -15 27 -17 18 -6 -13 16 -51 41 -51 33z"/>
 <path fill="#585b5c" d="M4010 691 c0 -6 -21 -11 -47 -13 l-48 -3 -3 -47 c-3 -52 -8 -57 -29 -30 -13 15 -13 15 -3 -5 20 -42 40 -28 40 27 l0 50 50 0 c38 0 50 4 50 15 0 8 -2 15 -5 15 -3 0 -5 -4 -5 -9z"/>
 <path fill="#585b5c" d="M4255 660 c-16 -16 -27 -31 -24 -33 2 -1 18 12 36 30 17 18 28 33 24 33 -4 0 -20 -13 -36 -30z"/>
 <path fill="#585b5c" d="M3810 677 c0 -2 15 -16 33 -33 l32 -29 -29 33 c-28 30 -36 37 -36 29z"/>
 <path fill="#585b5c" d="M3558 663 c12 -2 32 -2 45 0 12 2 2 4 -23 4 -25 0 -35 -2 -22 -4z"/>
 <path fill="#585b5c" d="M4308 655 c5 -11 12 -27 15 -35 5 -13 6 -13 6 1 1 8 -6 24 -15 35 -15 19 -15 19 -6 -1z"/>
 <path fill="#585b5c" d="M1989 642 c6 -12 16 -24 22 -28 8 -4 8 -1 0 14 -6 12 -16 24 -22 28 -8 4 -8 1 0 -14z"/>
 <path fill="#585b5c" d="M4142 630 c0 -19 2 -27 5 -17 2 9 2 25 0 35 -3 9 -5 1 -5 -18z"/>
 <path fill="#585b5c" d="M1937 610 c12 -14 26 -36 32 -50 7 -18 10 -20 10 -7 1 9 -14 32 -31 50 -18 18 -23 21 -11 7z"/>
 <path fill="#585b5c" d="M3351 614 c-2 -32 -40 -74 -85 -95 -23 -10 -34 -19 -25 -19 42 0 125 82 116 116 -4 17 -5 17 -6 -2z"/>
 <path fill="#585b5c" d="M2220 606 c0 -2 14 -14 30 -26 17 -12 30 -19 30 -16 0 2 -13 14 -30 26 -16 12 -30 19 -30 16z"/>
 <path fill="#585b5c" d="M3227 595 c-4 -11 -10 -27 -13 -35 -3 -8 1 -5 11 8 9 12 15 28 13 34 -3 7 -7 4 -11 -7z"/>
 <path fill="#585b5c" d="M4380 596 c0 -8 -12 -24 -26 -35 -15 -12 -22 -21 -17 -21 15 0 53 39 53 55 0 8 -2 15 -5 15 -3 0 -5 -6 -5 -14z"/>
 <path fill="#585b5c" d="M4230 594 c0 -18 27 -36 47 -31 14 4 14 5 -4 6 -12 0 -27 9 -32 19 -6 9 -11 12 -11 6z"/>
 <path fill="#585b5c" d="M4178 563 c13 -13 28 -23 35 -23 7 0 3 6 -8 12 -11 6 -27 16 -35 22 -9 6 -5 1 8 -11z"/>
 <path fill="#585b5c" d="M2480 530 c0 -19 25 -21 65 -5 37 14 21 14 -34 -1 -17 -5 -22 -4 -17 4 4 7 2 12 -3 12 -6 0 -11 -5 -11 -10z"/>
 <path fill="#585b5c" d="M4253 533 c15 -2 37 -2 50 0 12 2 0 4 -28 4 -27 0 -38 -2 -22 -4z"/>
 <path fill="#585b5c" d="M3103 523 c9 -2 25 -2 35 0 9 3 1 5 -18 5 -19 0 -27 -2 -17 -5z"/>
 <path fill="#585b5c" d="M2327 513 c6 -5 14 -29 16 -53 l4 -45 -1 49 c-1 35 -5 51 -16 53 -10 3 -11 2 -3 -4z"/>
 <path fill="#585b5c" d="M4683 503 c26 -2 68 -2 95 0 26 2 4 3 -48 3 -52 0 -74 -1 -47 -3z"/>
 <path fill="#585b5c" d="M4843 503 c9 -2 25 -2 35 0 9 3 1 5 -18 5 -19 0 -27 -2 -17 -5z"/>
 <path fill="#585b5c" d="M2031 488 c0 -9 -4 -25 -7 -35 -5 -17 -5 -17 6 0 6 10 9 25 7 35 -4 15 -5 15 -6 0z"/>
 <path fill="#585b5c" d="M2988 493 c23 -2 59 -2 80 0 20 2 1 4 -43 4 -44 0 -61 -2 -37 -4z"/>
 <path fill="#585b5c" d="M1949 443 c-8 -9 -27 -22 -44 -29 -18 -8 -23 -13 -13 -14 16 0 92 59 77 60 -4 0 -13 -7 -20 -17z"/>
 <path fill="#585b5c" d="M2636 445 c-3 -9 -6 -26 -5 -38 1 -14 4 -9 9 13 9 37 7 52 -4 25z"/>
 <path fill="#585b5c" d="M2003 415 c-3 -9 -22 -27 -42 -40 -19 -14 -32 -25 -27 -25 14 0 66 41 76 61 6 10 8 19 5 19 -3 0 -8 -7 -12 -15z"/>
 <path fill="#585b5c" d="M2380 387 c-1 -20 42 -85 77 -117 l38 -35 -36 40 c-20 22 -46 58 -57 80 -12 22 -21 36 -22 32z"/>
 <path fill="#585b5c" d="M2360 364 c0 -11 38 -74 45 -74 2 0 -5 17 -17 38 -27 46 -28 48 -28 36z"/>
 <path fill="#585b5c" d="M2580 239 c0 -8 4 -20 9 -27 7 -11 9 -11 14 1 3 9 -1 21 -9 27 -11 10 -14 10 -14 -1z"/>
 <path fill="#585b5c" d="M2560 229 c0 -6 -9 -9 -20 -6 -11 3 -18 1 -14 -4 9 -15 44 -10 44 6 0 8 -2 15 -5 15 -3 0 -5 -5 -5 -11z"/>
 </g>
<g id="layer103">
 <path fill="#a4a8a9" d="M2118 1273 c29 -2 74 -2 100 0 26 2 2 3 -53 3 -55 0 -76 -1 -47 -3z"/>
 <path fill="#a4a8a9" d="M2333 1273 c15 -2 37 -2 50 0 12 2 0 4 -28 4 -27 0 -38 -2 -22 -4z"/>
 <path fill="#a4a8a9" d="M1925 1257 c-92 -36 -163 -107 -191 -189 -49 -150 5 -290 150 -383 59 -38 101 -80 115 -115 5 -14 10 -18 10 -10 2 31 -39 78 -106 122 -126 84 -175 160 -174 278 0 146 88 258 230 296 28 8 36 13 21 13 -14 0 -38 -6 -55 -12z"/>
 <path fill="#a4a8a9" d="M2013 1180 c0 -25 2 -35 4 -22 2 12 2 32 0 45 -2 12 -4 2 -4 -23z"/>
 <path fill="#a4a8a9" d="M1983 1115 c0 -33 2 -45 4 -27 2 18 2 45 0 60 -2 15 -4 0 -4 -33z"/>
 <path fill="#a4a8a9" d="M2502 1020 c0 -19 2 -27 5 -17 2 9 2 25 0 35 -3 9 -5 1 -5 -18z"/>
 <path fill="#a4a8a9" d="M4463 1003 c9 -2 25 -2 35 0 9 3 1 5 -18 5 -19 0 -27 -2 -17 -5z"/>
 <path fill="#a4a8a9" d="M2891 978 c1 -16 3 -18 6 -6 2 9 12 19 21 21 12 3 10 5 -5 6 -18 1 -23 -4 -22 -21z"/>
 <path fill="#a4a8a9" d="M3137 993 c12 -2 24 -11 26 -19 3 -9 4 -8 3 3 -1 12 -10 18 -26 19 -21 1 -21 0 -3 -3z"/>
 <path fill="#a4a8a9" d="M4678 993 c23 -2 59 -2 80 0 20 2 1 4 -43 4 -44 0 -61 -2 -37 -4z"/>
 <path fill="#a4a8a9" d="M3073 860 c0 -41 2 -58 4 -37 2 20 2 54 0 75 -2 20 -4 3 -4 -38z"/>
 <path fill="#a4a8a9" d="M4704 750 c0 -102 2 -143 3 -92 2 50 2 134 0 185 -1 50 -3 9 -3 -93z"/>
 <path fill="#a4a8a9" d="M3914 805 c1 -89 1 -90 26 -91 21 -1 21 0 3 3 -21 4 -23 11 -26 91 l-3 87 0 -90z"/>
 <path fill="#a4a8a9" d="M2394 838 l-29 -33 33 29 c30 28 37 36 29 36 -2 0 -16 -15 -33 -32z"/>
 <path fill="#a4a8a9" d="M1800 797 c0 -2 15 -16 33 -33 l32 -29 -29 33 c-28 30 -36 37 -36 29z"/>
 <path fill="#a4a8a9" d="M3513 785 c-3 -9 -3 -19 1 -22 3 -4 6 1 6 10 0 12 12 17 53 20 l52 3 -53 2 c-39 2 -54 -2 -59 -13z"/>
 <path fill="#a4a8a9" d="M4364 748 l-29 -33 33 29 c30 28 37 36 29 36 -2 0 -16 -15 -33 -32z"/>
 <path fill="#a4a8a9" d="M3074 747 c-2 -7 -3 -60 -2 -118 l3 -104 5 118 c3 64 4 117 2 117 -1 0 -5 -6 -8 -13z"/>
 <path fill="#a4a8a9" d="M3913 610 c0 -25 2 -35 4 -22 2 12 2 32 0 45 -2 12 -4 2 -4 -23z"/>
 <path fill="#a4a8a9" d="M2001 487 c-3 -52 -50 -93 -131 -115 -30 -9 -31 -10 -10 -11 64 -3 159 79 147 126 -4 17 -5 17 -6 0z"/>
 </g>

</svg>